<?xml version='1.0' encoding='utf-8'?>
<!DOCTYPE svg PUBLIC '-//W3C//DTD SVG 1.1//EN' 'http://www.w3.org/Graphics/SVG/1.1/DTD/svg11.dtd'>
<!-- Uploaded to: SVG Repo, www.svgrepo.com, Generator: SVG Repo Mixer Tools -->
<svg fill="#ffffff" height="800px" width="800px" version="1.1" xmlns="http://www.w3.org/2000/svg" viewBox="0 0 512 512" xmlns:xlink="http://www.w3.org/1999/xlink" enable-background="new 0 0 512 512">
  <g>
    <path d="m485.8,71.2l-224.6-59.5c-3.4-0.9-7-0.9-10.5-3.55271e-15l-224.5,59.5c-9,2.4-15.3,10.6-15.2,19.9 0.6,79.6 22.8,158.4 64.6,229.6-11.2,3.5-21.8,9.2-31,16.8-39.2,32.3-44.9,90.5-12.7,129.8 17.5,21.4 43.5,33.7 71.2,33.7 21.2,0 41.9-7.4 58.4-21 9.9-8.1 17.6-17.9 23.2-28.6 18.8,16.5 38.9,31.9 60,46.1 3.4,2.3 7.4,3.5 11.4,3.5 4,0 8-1.2 11.4-3.5 147.2-99.1 232.3-247.2 233.5-406.4 0.1-9.3-6.2-17.5-15.2-19.9zm-382.8,388.8c-28.3,0-51.2-22.9-51.2-51.2 0-28.3 22.9-51.2 51.2-51.2 28.3,0 51.2,22.9 51.2,51.2 0,28.3-22.9,51.2-51.2,51.2zm153-4.2c-21.8-15.4-42.2-32.3-61.1-50.2-0.4-13-3.6-26-9.6-38l150.6-124c8.7-7.2 9.9-20 2.8-28.7-0.1-0.1-42.6-47.4-42.6-47.4-7.5-8.4-20.4-9.1-28.8-1.5-8.4,7.5-9.1,20.4-1.5,28.8l27.8,30.9-25.4,20.9-29-32.2c-7.5-8.4-20.4-9.1-28.8-1.5-8.4,7.5-9.1,20.4-1.5,28.8l27.8,30.9-77.1,63.5c-10.9-8.5-23.6-14.4-37.1-17.3-42.5-65.1-66.6-138-70-212.1l203.7-54 203.7,54c-6.4,135.3-79.8,261.2-203.9,349.1z"/>
  </g>
</svg>